<svg width="682" height="151" viewBox="0 0 682 151" fill="none" xmlns="http://www.w3.org/2000/svg">
<path d="M15.8336 1.25969V57.3508H57.9767V71H0.689983V1.25969H15.8336ZM59.872 1.25969H117.159V15.0085H75.0156V29.3551H117.159V43.0042H75.0156V57.1516H117.159V71H75.0156H59.872V1.25969ZM119.735 15.1081V1.25969H187.582V15.1081H161.181V71H146.037V15.1081H119.735ZM219.77 28.7573C235.412 31.3476 253.246 33.6391 253.246 49.3805C253.246 66.716 241.689 71 221.265 71C186.893 71 186.992 51.9709 186.992 45.2957C190.081 45.2957 193.966 45.2957 202.534 45.2957C202.534 55.7568 211.8 57.4505 220.866 57.4505C232.324 57.4505 237.106 54.7605 237.106 49.3805C237.106 44.6979 232.324 43.8013 218.674 41.8087C197.752 38.7202 188.387 34.4362 188.387 21.6836C188.387 11.8204 195.66 0.462658 218.475 0.462658C245.574 0.462658 250.954 15.6063 250.954 26.1669C250.954 26.1669 240.394 26.1669 235.014 26.1669C235.014 21.3847 232.921 14.2115 218.475 14.2115C206.719 14.2115 204.029 18.3959 204.029 21.7833C204.029 25.4695 208.114 26.8643 219.77 28.7573ZM344.996 1.25969H366.715V71H351.572V19.0933H350.077L336.827 71H315.008L301.757 19.0933H300.263V71H285.119V1.25969H307.436V1.35931H311.122L324.971 57.1516H326.366L340.314 1.35931H344.996V1.25969ZM417.283 1.35931L442.191 71H426.449L422.364 59.5427H386.797L382.612 71H366.971L391.878 1.35931H417.283ZM391.679 45.6942H417.383L406.523 15.1081H402.638L391.679 45.6942ZM507.157 1.35931L478.863 32.6428L507.157 71H488.228L468.202 44.2994L457.642 56.0556V71H442.498V1.25969H457.642V33.3402L486.833 1.35931H507.157ZM506.642 1.25969H563.929V15.0085H521.786V29.3551H563.929V43.0042H521.786V57.1516H563.929V71H521.786H506.642V1.25969ZM611.059 71H595.915V1.25969H611.059V71ZM613.552 15.1081V1.25969H681.4V15.1081H654.998V71H639.854V15.1081H613.552ZM52.1982 109.355V81.2597H67.4414V151H52.1982V123.004H15.8336V151H0.689983V81.2597H15.8336V109.355H52.1982ZM117.676 81.3593L142.584 151H126.842L122.757 139.543H87.1898L83.0053 151H67.3636L92.2708 81.3593H117.676ZM92.0716 125.694H117.776L106.916 95.1081H103.031L92.0716 125.694ZM173.296 81.2597C181.665 81.2597 203.086 81.3593 203.086 106.466C203.086 132.469 179.872 131.572 173.296 131.572C170.706 131.572 160.345 131.572 157.256 131.572V151H142.113V81.2597H157.256V81.3593C160.942 81.3593 169.212 81.2597 173.296 81.2597ZM173.795 118.421C177.879 118.421 188.839 119.019 188.839 106.466C188.839 94.4107 179.175 94.4107 174.094 94.4107C171.304 94.4107 161.341 94.4107 157.256 94.4107V118.421C160.644 118.421 172.499 118.421 173.795 118.421ZM236.759 81.2597C245.128 81.2597 266.548 81.3593 266.548 106.466C266.548 132.469 243.335 131.572 236.759 131.572C234.169 131.572 223.808 131.572 220.719 131.572V151H205.575V81.2597H220.719V81.3593C224.405 81.3593 232.675 81.2597 236.759 81.2597ZM237.258 118.421C241.342 118.421 252.302 119.019 252.302 106.466C252.302 94.4107 242.637 94.4107 237.556 94.4107C234.767 94.4107 224.804 94.4107 220.719 94.4107V118.421C224.106 118.421 235.962 118.421 237.258 118.421ZM267.968 81.2597H325.255V95.0085H283.112V109.355H325.255V123.004H283.112V137.152H325.255V151H283.112H267.968V81.2597ZM382.124 131.373V81.2597H397.268V151H375.449L344.863 100.986H343.169V151H328.026V81.2597H348.45V81.3593H349.845L380.331 131.373H382.124ZM408.626 151C403.744 151 399.759 147.015 399.759 142.133C399.759 137.152 403.744 133.166 408.626 133.166C413.607 133.166 417.592 137.152 417.592 142.133C417.592 147.015 413.607 151 408.626 151Z" fill="white"/>
</svg>
