<svg width="209" height="29" viewBox="0 0 209 29" fill="none" xmlns="http://www.w3.org/2000/svg">
<rect width="209" height="29" rx="14.5" fill="#002217"/>
<g filter="url(#filter0_d_509_63612)">
<circle cx="18" cy="14.5" r="5" fill="#1AD598"/>
</g>
<path d="M42.9631 14.9091C42.9631 15.9962 42.7642 16.9309 42.3665 17.7131C41.9688 18.492 41.4235 19.0919 40.7308 19.5128C40.0414 19.9304 39.2576 20.1392 38.3793 20.1392C37.4976 20.1392 36.7105 19.9304 36.0178 19.5128C35.3284 19.0919 34.7848 18.4903 34.3871 17.7081C33.9893 16.9259 33.7905 15.9929 33.7905 14.9091C33.7905 13.822 33.9893 12.889 34.3871 12.1101C34.7848 11.3279 35.3284 10.728 36.0178 10.3104C36.7105 9.88944 37.4976 9.67898 38.3793 9.67898C39.2576 9.67898 40.0414 9.88944 40.7308 10.3104C41.4235 10.728 41.9688 11.3279 42.3665 12.1101C42.7642 12.889 42.9631 13.822 42.9631 14.9091ZM41.4418 14.9091C41.4418 14.0805 41.3075 13.3828 41.0391 12.8161C40.7739 12.246 40.4093 11.8151 39.9453 11.5234C39.4846 11.2285 38.9626 11.081 38.3793 11.081C37.7926 11.081 37.2689 11.2285 36.8082 11.5234C36.3475 11.8151 35.983 12.246 35.7145 12.8161C35.4493 13.3828 35.3168 14.0805 35.3168 14.9091C35.3168 15.7377 35.4493 16.437 35.7145 17.0071C35.983 17.5739 36.3475 18.0047 36.8082 18.2997C37.2689 18.5914 37.7926 18.7372 38.3793 18.7372C38.9626 18.7372 39.4846 18.5914 39.9453 18.2997C40.4093 18.0047 40.7739 17.5739 41.0391 17.0071C41.3075 16.437 41.4418 15.7377 41.4418 14.9091ZM44.3391 22.8636V12.3636H45.7908V13.6016H45.915C46.0012 13.4425 46.1255 13.2585 46.2879 13.0497C46.4503 12.8409 46.6757 12.6586 46.9641 12.5028C47.2524 12.3438 47.6336 12.2642 48.1075 12.2642C48.724 12.2642 49.2742 12.42 49.7581 12.7315C50.242 13.0431 50.6215 13.4922 50.8966 14.0788C51.175 14.6655 51.3142 15.3714 51.3142 16.1967C51.3142 17.022 51.1767 17.7296 50.9016 18.3196C50.6265 18.9062 50.2486 19.3587 49.768 19.6768C49.2874 19.9917 48.7389 20.1491 48.1224 20.1491C47.6584 20.1491 47.2789 20.0713 46.9839 19.9155C46.6923 19.7597 46.4636 19.5774 46.2979 19.3686C46.1321 19.1598 46.0045 18.9742 45.915 18.8118H45.8256V22.8636H44.3391ZM45.7957 16.1818C45.7957 16.7187 45.8736 17.1894 46.0294 17.5938C46.1852 17.9981 46.4106 18.3146 46.7055 18.5433C47.0005 18.7687 47.3618 18.8814 47.7893 18.8814C48.2335 18.8814 48.6047 18.7637 48.903 18.5284C49.2013 18.2898 49.4267 17.9666 49.5791 17.5589C49.7349 17.1513 49.8128 16.6922 49.8128 16.1818C49.8128 15.678 49.7365 15.2256 49.5841 14.8246C49.4349 14.4235 49.2096 14.107 48.9079 13.875C48.6097 13.643 48.2368 13.527 47.7893 13.527C47.3585 13.527 46.9939 13.638 46.6956 13.8601C46.4006 14.0821 46.1769 14.392 46.0244 14.7898C45.872 15.1875 45.7957 15.6515 45.7957 16.1818ZM55.8509 20.1541C55.0985 20.1541 54.4505 19.9934 53.907 19.6719C53.3667 19.3471 52.9491 18.8913 52.6541 18.3047C52.3625 17.7147 52.2166 17.0237 52.2166 16.2315C52.2166 15.4493 52.3625 14.7599 52.6541 14.1634C52.9491 13.5668 53.3601 13.1011 53.8871 12.7663C54.4174 12.4316 55.0372 12.2642 55.7465 12.2642C56.1773 12.2642 56.595 12.3355 56.9993 12.478C57.4037 12.6205 57.7666 12.8442 58.0881 13.1491C58.4096 13.4541 58.6631 13.8501 58.8487 14.3374C59.0343 14.8213 59.1272 15.4096 59.1272 16.1023V16.6293H53.0568V15.5156H57.6705C57.6705 15.1245 57.5909 14.7782 57.4318 14.4766C57.2727 14.1716 57.049 13.9313 56.7607 13.7557C56.4756 13.58 56.1409 13.4922 55.7564 13.4922C55.3388 13.4922 54.9742 13.5949 54.6627 13.8004C54.3544 14.0026 54.1158 14.2678 53.9468 14.5959C53.781 14.9207 53.6982 15.2737 53.6982 15.6548V16.5249C53.6982 17.0353 53.7877 17.4695 53.9666 17.8274C54.1489 18.1854 54.4025 18.4588 54.7273 18.6477C55.0521 18.8333 55.4316 18.9261 55.8658 18.9261C56.1475 18.9261 56.4044 18.8864 56.6364 18.8068C56.8684 18.724 57.0689 18.6013 57.2379 18.4389C57.407 18.2765 57.5362 18.076 57.6257 17.8374L59.0327 18.0909C58.92 18.5052 58.7178 18.8681 58.4262 19.1797C58.1378 19.4879 57.7749 19.7282 57.3374 19.9006C56.9032 20.0696 56.4077 20.1541 55.8509 20.1541ZM61.843 15.4659V20H60.3565V12.3636H61.7833V13.6065H61.8778C62.0534 13.2022 62.3285 12.8774 62.7031 12.6321C63.0809 12.3868 63.5565 12.2642 64.1299 12.2642C64.6503 12.2642 65.106 12.3736 65.4971 12.5923C65.8882 12.8078 66.1915 13.1293 66.4069 13.5568C66.6223 13.9844 66.7301 14.513 66.7301 15.1428V20H65.2436V15.3217C65.2436 14.7682 65.0994 14.3357 64.811 14.0241C64.5227 13.7093 64.1266 13.5518 63.6228 13.5518C63.2781 13.5518 62.9715 13.6264 62.7031 13.7756C62.4379 13.9247 62.2275 14.1435 62.0717 14.4318C61.9192 14.7169 61.843 15.0616 61.843 15.4659ZM75.1534 12.3636V13.5568H70.9822V12.3636H75.1534ZM72.1008 10.5341H73.5873V17.7578C73.5873 18.0462 73.6304 18.2633 73.7166 18.4091C73.8028 18.5516 73.9138 18.6494 74.0497 18.7024C74.1889 18.7521 74.3397 18.777 74.5021 18.777C74.6214 18.777 74.7258 18.7687 74.8153 18.7521C74.9048 18.7356 74.9744 18.7223 75.0241 18.7124L75.2926 19.9403C75.2064 19.9735 75.0838 20.0066 74.9247 20.0398C74.7656 20.0762 74.5667 20.0961 74.3281 20.0994C73.937 20.1061 73.5724 20.0365 73.2343 19.8906C72.8963 19.7448 72.6228 19.5194 72.414 19.2145C72.2052 18.9096 72.1008 18.5268 72.1008 18.0661V10.5341ZM79.5123 20.1541C78.7964 20.1541 78.1716 19.9901 77.638 19.6619C77.1044 19.3338 76.6901 18.8748 76.3951 18.2848C76.1001 17.6948 75.9527 17.0054 75.9527 16.2166C75.9527 15.4245 76.1001 14.7318 76.3951 14.1385C76.6901 13.5452 77.1044 13.0845 77.638 12.7564C78.1716 12.4283 78.7964 12.2642 79.5123 12.2642C80.2282 12.2642 80.853 12.4283 81.3866 12.7564C81.9202 13.0845 82.3345 13.5452 82.6295 14.1385C82.9245 14.7318 83.072 15.4245 83.072 16.2166C83.072 17.0054 82.9245 17.6948 82.6295 18.2848C82.3345 18.8748 81.9202 19.3338 81.3866 19.6619C80.853 19.9901 80.2282 20.1541 79.5123 20.1541ZM79.5173 18.9062C79.9813 18.9062 80.3658 18.7836 80.6707 18.5384C80.9756 18.2931 81.201 17.9666 81.3468 17.5589C81.496 17.1513 81.5706 16.7022 81.5706 16.2116C81.5706 15.7244 81.496 15.277 81.3468 14.8693C81.201 14.4583 80.9756 14.1286 80.6707 13.88C80.3658 13.6314 79.9813 13.5071 79.5173 13.5071C79.05 13.5071 78.6622 13.6314 78.3539 13.88C78.049 14.1286 77.822 14.4583 77.6728 14.8693C77.527 15.277 77.4541 15.7244 77.4541 16.2116C77.4541 16.7022 77.527 17.1513 77.6728 17.5589C77.822 17.9666 78.049 18.2931 78.3539 18.5384C78.6622 18.7836 79.05 18.9062 79.5173 18.9062ZM89.2519 20L87.0047 12.3636H88.5409L90.0374 17.9716H90.1119L91.6134 12.3636H93.1496L94.6411 17.9467H94.7156L96.2021 12.3636H97.7384L95.4962 20H93.9798L92.4287 14.4865H92.3144L90.7632 20H89.2519ZM101.713 20.1541C100.997 20.1541 100.373 19.9901 99.839 19.6619C99.3053 19.3338 98.891 18.8748 98.5961 18.2848C98.3011 17.6948 98.1536 17.0054 98.1536 16.2166C98.1536 15.4245 98.3011 14.7318 98.5961 14.1385C98.891 13.5452 99.3053 13.0845 99.839 12.7564C100.373 12.4283 100.997 12.2642 101.713 12.2642C102.429 12.2642 103.054 12.4283 103.588 12.7564C104.121 13.0845 104.535 13.5452 104.83 14.1385C105.125 14.7318 105.273 15.4245 105.273 16.2166C105.273 17.0054 105.125 17.6948 104.83 18.2848C104.535 18.8748 104.121 19.3338 103.588 19.6619C103.054 19.9901 102.429 20.1541 101.713 20.1541ZM101.718 18.9062C102.182 18.9062 102.567 18.7836 102.872 18.5384C103.177 18.2931 103.402 17.9666 103.548 17.5589C103.697 17.1513 103.771 16.7022 103.771 16.2116C103.771 15.7244 103.697 15.277 103.548 14.8693C103.402 14.4583 103.177 14.1286 102.872 13.88C102.567 13.6314 102.182 13.5071 101.718 13.5071C101.251 13.5071 100.863 13.6314 100.555 13.88C100.25 14.1286 100.023 14.4583 99.8738 14.8693C99.7279 15.277 99.655 15.7244 99.655 16.2116C99.655 16.7022 99.7279 17.1513 99.8738 17.5589C100.023 17.9666 100.25 18.2931 100.555 18.5384C100.863 18.7836 101.251 18.9062 101.718 18.9062ZM106.512 20V12.3636H107.949V13.5767H108.029C108.168 13.1657 108.413 12.8426 108.764 12.6072C109.119 12.3686 109.52 12.2493 109.967 12.2493C110.06 12.2493 110.17 12.2526 110.296 12.2592C110.425 12.2659 110.526 12.2741 110.599 12.2841V13.706C110.539 13.6894 110.433 13.6712 110.281 13.6513C110.128 13.6281 109.976 13.6165 109.823 13.6165C109.472 13.6165 109.159 13.6911 108.884 13.8402C108.612 13.986 108.396 14.1899 108.237 14.4517C108.078 14.7102 107.999 15.0052 107.999 15.3366V20H106.512ZM112.832 17.4098L112.822 15.5952H113.081L116.124 12.3636H117.903L114.433 16.0426H114.2L112.832 17.4098ZM111.465 20V9.81818H112.952V20H111.465ZM116.288 20L113.553 16.3707L114.577 15.3317L118.112 20H116.288ZM125.086 20.1442C124.404 20.1442 123.815 20.0199 123.321 19.7713C122.831 19.5227 122.453 19.1847 122.188 18.7571C121.923 18.3262 121.79 17.839 121.79 17.2955C121.79 16.8812 121.876 16.5133 122.049 16.1918C122.221 15.867 122.461 15.567 122.77 15.2919C123.078 15.0168 123.434 14.7401 123.838 14.4616L125.479 13.3033C125.758 13.121 125.975 12.9287 126.13 12.7266C126.286 12.5211 126.364 12.2675 126.364 11.9659C126.364 11.7273 126.261 11.4986 126.056 11.2798C125.85 11.0611 125.575 10.9517 125.231 10.9517C124.992 10.9517 124.781 11.0097 124.599 11.1257C124.42 11.2417 124.279 11.3909 124.177 11.5732C124.077 11.7521 124.027 11.9411 124.027 12.1399C124.027 12.3719 124.09 12.6056 124.216 12.8409C124.346 13.0762 124.511 13.3198 124.713 13.5717C124.916 13.8203 125.128 14.0788 125.35 14.3473L130.078 20H128.397L124.485 15.4013C124.157 15.0135 123.852 14.6489 123.57 14.3075C123.288 13.9628 123.06 13.6148 122.884 13.2635C122.712 12.9089 122.625 12.526 122.625 12.1151C122.625 11.6477 122.731 11.2334 122.944 10.8722C123.159 10.5076 123.459 10.2225 123.843 10.017C124.228 9.81155 124.679 9.70881 125.196 9.70881C125.719 9.70881 126.168 9.81155 126.543 10.017C126.921 10.2192 127.211 10.4893 127.413 10.8274C127.619 11.1622 127.721 11.5284 127.721 11.9261C127.721 12.41 127.6 12.8376 127.358 13.2088C127.12 13.5767 126.79 13.9148 126.369 14.223L124.326 15.7294C123.928 16.0211 123.651 16.3094 123.495 16.5945C123.343 16.8762 123.267 17.0966 123.267 17.2557C123.267 17.5473 123.341 17.8175 123.49 18.0661C123.643 18.3146 123.855 18.5135 124.127 18.6626C124.402 18.8118 124.723 18.8864 125.091 18.8864C125.469 18.8864 125.837 18.8052 126.195 18.6428C126.556 18.477 126.883 18.2401 127.174 17.9318C127.469 17.6236 127.703 17.254 127.875 16.8232C128.048 16.3923 128.134 15.91 128.134 15.3764H129.476C129.476 16.0327 129.402 16.5878 129.253 17.0419C129.103 17.4927 128.923 17.8606 128.711 18.1456C128.502 18.4273 128.305 18.6477 128.119 18.8068C128.059 18.8598 128.003 18.9129 127.95 18.9659C127.897 19.0189 127.841 19.072 127.781 19.125C127.436 19.473 127.019 19.7299 126.528 19.8956C126.041 20.0613 125.56 20.1442 125.086 20.1442ZM134.107 20V12.3636H135.544V13.5767H135.624C135.763 13.1657 136.008 12.8426 136.36 12.6072C136.714 12.3686 137.115 12.2493 137.563 12.2493C137.656 12.2493 137.765 12.2526 137.891 12.2592C138.02 12.2659 138.121 12.2741 138.194 12.2841V13.706C138.134 13.6894 138.028 13.6712 137.876 13.6513C137.723 13.6281 137.571 13.6165 137.419 13.6165C137.067 13.6165 136.754 13.6911 136.479 13.8402C136.207 13.986 135.992 14.1899 135.833 14.4517C135.674 14.7102 135.594 15.0052 135.594 15.3366V20H134.107ZM142.078 20.1541C141.326 20.1541 140.678 19.9934 140.134 19.6719C139.594 19.3471 139.177 18.8913 138.882 18.3047C138.59 17.7147 138.444 17.0237 138.444 16.2315C138.444 15.4493 138.59 14.7599 138.882 14.1634C139.177 13.5668 139.588 13.1011 140.115 12.7663C140.645 12.4316 141.265 12.2642 141.974 12.2642C142.405 12.2642 142.822 12.3355 143.227 12.478C143.631 12.6205 143.994 12.8442 144.316 13.1491C144.637 13.4541 144.891 13.8501 145.076 14.3374C145.262 14.8213 145.355 15.4096 145.355 16.1023V16.6293H139.284V15.5156H143.898C143.898 15.1245 143.818 14.7782 143.659 14.4766C143.5 14.1716 143.276 13.9313 142.988 13.7557C142.703 13.58 142.368 13.4922 141.984 13.4922C141.566 13.4922 141.202 13.5949 140.89 13.8004C140.582 14.0026 140.343 14.2678 140.174 14.5959C140.008 14.9207 139.926 15.2737 139.926 15.6548V16.5249C139.926 17.0353 140.015 17.4695 140.194 17.8274C140.376 18.1854 140.63 18.4588 140.955 18.6477C141.28 18.8333 141.659 18.9261 142.093 18.9261C142.375 18.9261 142.632 18.8864 142.864 18.8068C143.096 18.724 143.296 18.6013 143.465 18.4389C143.634 18.2765 143.764 18.076 143.853 17.8374L145.26 18.0909C145.147 18.5052 144.945 18.8681 144.654 19.1797C144.365 19.4879 144.002 19.7282 143.565 19.9006C143.131 20.0696 142.635 20.1541 142.078 20.1541ZM148.07 9.81818V20H146.584V9.81818H148.07ZM152.867 20.1541C152.151 20.1541 151.526 19.9901 150.993 19.6619C150.459 19.3338 150.045 18.8748 149.75 18.2848C149.455 17.6948 149.307 17.0054 149.307 16.2166C149.307 15.4245 149.455 14.7318 149.75 14.1385C150.045 13.5452 150.459 13.0845 150.993 12.7564C151.526 12.4283 152.151 12.2642 152.867 12.2642C153.583 12.2642 154.208 12.4283 154.741 12.7564C155.275 13.0845 155.689 13.5452 155.984 14.1385C156.279 14.7318 156.427 15.4245 156.427 16.2166C156.427 17.0054 156.279 17.6948 155.984 18.2848C155.689 18.8748 155.275 19.3338 154.741 19.6619C154.208 19.9901 153.583 20.1541 152.867 20.1541ZM152.872 18.9062C153.336 18.9062 153.72 18.7836 154.025 18.5384C154.33 18.2931 154.556 17.9666 154.701 17.5589C154.851 17.1513 154.925 16.7022 154.925 16.2116C154.925 15.7244 154.851 15.277 154.701 14.8693C154.556 14.4583 154.33 14.1286 154.025 13.88C153.72 13.6314 153.336 13.5071 152.872 13.5071C152.404 13.5071 152.017 13.6314 151.708 13.88C151.404 14.1286 151.177 14.4583 151.027 14.8693C150.882 15.277 150.809 15.7244 150.809 16.2116C150.809 16.7022 150.882 17.1513 151.027 17.5589C151.177 17.9666 151.404 18.2931 151.708 18.5384C152.017 18.7836 152.404 18.9062 152.872 18.9062ZM160.882 20.1541C160.143 20.1541 159.507 19.9867 158.973 19.652C158.443 19.3139 158.035 18.8482 157.75 18.255C157.465 17.6617 157.323 16.9822 157.323 16.2166C157.323 15.4411 157.469 14.7566 157.76 14.1634C158.052 13.5668 158.463 13.1011 158.993 12.7663C159.523 12.4316 160.148 12.2642 160.867 12.2642C161.447 12.2642 161.965 12.3719 162.419 12.5874C162.873 12.7995 163.239 13.0978 163.517 13.4822C163.799 13.8667 163.966 14.3158 164.019 14.8295H162.573C162.493 14.4716 162.311 14.1634 162.026 13.9048C161.744 13.6463 161.366 13.517 160.892 13.517C160.478 13.517 160.115 13.6264 159.804 13.8452C159.495 14.0606 159.255 14.3688 159.083 14.7699C158.91 15.1676 158.824 15.6383 158.824 16.1818C158.824 16.7386 158.909 17.2192 159.078 17.6236C159.247 18.0279 159.485 18.3411 159.794 18.5632C160.105 18.7853 160.471 18.8963 160.892 18.8963C161.174 18.8963 161.429 18.8449 161.658 18.7422C161.89 18.6361 162.084 18.4853 162.24 18.2898C162.399 18.0942 162.51 17.8589 162.573 17.5838H164.019C163.966 18.0777 163.806 18.5185 163.537 18.9062C163.269 19.294 162.909 19.599 162.458 19.821C162.011 20.0431 161.486 20.1541 160.882 20.1541ZM167.411 20.169C166.928 20.169 166.49 20.0795 166.099 19.9006C165.708 19.7183 165.398 19.4548 165.169 19.1101C164.944 18.7654 164.831 18.3428 164.831 17.8423C164.831 17.4115 164.914 17.0568 165.08 16.7784C165.245 16.5 165.469 16.2796 165.751 16.1172C166.033 15.9548 166.348 15.8321 166.696 15.7493C167.044 15.6664 167.398 15.6035 167.759 15.5604C168.217 15.5073 168.588 15.4643 168.873 15.4311C169.158 15.3946 169.365 15.3366 169.495 15.2571C169.624 15.1776 169.688 15.0483 169.688 14.8693V14.8345C169.688 14.4003 169.566 14.0639 169.321 13.8253C169.079 13.5866 168.717 13.4673 168.237 13.4673C167.736 13.4673 167.342 13.5784 167.053 13.8004C166.768 14.0192 166.571 14.2628 166.462 14.5312L165.065 14.2131C165.231 13.7491 165.473 13.3745 165.791 13.0895C166.112 12.8011 166.482 12.5923 166.899 12.4631C167.317 12.3305 167.756 12.2642 168.217 12.2642C168.522 12.2642 168.845 12.3007 169.186 12.3736C169.531 12.4432 169.852 12.5724 170.151 12.7614C170.452 12.9503 170.699 13.2204 170.892 13.5717C171.084 13.9197 171.18 14.3722 171.18 14.929V20H169.728V18.956H169.669C169.572 19.1482 169.428 19.3371 169.236 19.5227C169.044 19.7083 168.797 19.8625 168.495 19.9851C168.194 20.1077 167.832 20.169 167.411 20.169ZM167.735 18.9759C168.146 18.9759 168.497 18.8946 168.789 18.7322C169.084 18.5698 169.307 18.3577 169.46 18.0959C169.616 17.8307 169.693 17.5473 169.693 17.2457V16.2614C169.64 16.3144 169.538 16.3641 169.385 16.4105C169.236 16.4536 169.065 16.4917 168.873 16.5249C168.681 16.5547 168.494 16.5829 168.311 16.6094C168.129 16.6326 167.977 16.6525 167.854 16.669C167.566 16.7055 167.302 16.7668 167.063 16.853C166.828 16.9392 166.639 17.0634 166.497 17.2259C166.357 17.3849 166.288 17.5971 166.288 17.8622C166.288 18.2301 166.424 18.5085 166.696 18.6974C166.967 18.883 167.314 18.9759 167.735 18.9759ZM176.304 12.3636V13.5568H172.133V12.3636H176.304ZM173.252 10.5341H174.738V17.7578C174.738 18.0462 174.781 18.2633 174.868 18.4091C174.954 18.5516 175.065 18.6494 175.201 18.7024C175.34 18.7521 175.491 18.777 175.653 18.777C175.772 18.777 175.877 18.7687 175.966 18.7521C176.056 18.7356 176.125 18.7223 176.175 18.7124L176.444 19.9403C176.357 19.9735 176.235 20.0066 176.076 20.0398C175.917 20.0762 175.718 20.0961 175.479 20.0994C175.088 20.1061 174.723 20.0365 174.385 19.8906C174.047 19.7448 173.774 19.5194 173.565 19.2145C173.356 18.9096 173.252 18.5268 173.252 18.0661V10.5341ZM177.529 20V12.3636H179.015V20H177.529ZM178.28 11.1854C178.021 11.1854 177.799 11.0992 177.613 10.9268C177.431 10.7512 177.34 10.5424 177.34 10.3004C177.34 10.0552 177.431 9.84635 177.613 9.67401C177.799 9.49834 178.021 9.41051 178.28 9.41051C178.538 9.41051 178.758 9.49834 178.941 9.67401C179.126 9.84635 179.219 10.0552 179.219 10.3004C179.219 10.5424 179.126 10.7512 178.941 10.9268C178.758 11.0992 178.538 11.1854 178.28 11.1854ZM183.812 20.1541C183.096 20.1541 182.471 19.9901 181.937 19.6619C181.404 19.3338 180.99 18.8748 180.695 18.2848C180.4 17.6948 180.252 17.0054 180.252 16.2166C180.252 15.4245 180.4 14.7318 180.695 14.1385C180.99 13.5452 181.404 13.0845 181.937 12.7564C182.471 12.4283 183.096 12.2642 183.812 12.2642C184.528 12.2642 185.152 12.4283 185.686 12.7564C186.22 13.0845 186.634 13.5452 186.929 14.1385C187.224 14.7318 187.371 15.4245 187.371 16.2166C187.371 17.0054 187.224 17.6948 186.929 18.2848C186.634 18.8748 186.22 19.3338 185.686 19.6619C185.152 19.9901 184.528 20.1541 183.812 20.1541ZM183.817 18.9062C184.281 18.9062 184.665 18.7836 184.97 18.5384C185.275 18.2931 185.5 17.9666 185.646 17.5589C185.795 17.1513 185.87 16.7022 185.87 16.2116C185.87 15.7244 185.795 15.277 185.646 14.8693C185.5 14.4583 185.275 14.1286 184.97 13.88C184.665 13.6314 184.281 13.5071 183.817 13.5071C183.349 13.5071 182.962 13.6314 182.653 13.88C182.348 14.1286 182.121 14.4583 181.972 14.8693C181.826 15.277 181.754 15.7244 181.754 16.2116C181.754 16.7022 181.826 17.1513 181.972 17.5589C182.121 17.9666 182.348 18.2931 182.653 18.5384C182.962 18.7836 183.349 18.9062 183.817 18.9062ZM190.097 15.4659V20H188.611V12.3636H190.038V13.6065H190.132C190.308 13.2022 190.583 12.8774 190.957 12.6321C191.335 12.3868 191.811 12.2642 192.384 12.2642C192.904 12.2642 193.36 12.3736 193.751 12.5923C194.142 12.8078 194.446 13.1293 194.661 13.5568C194.877 13.9844 194.984 14.513 194.984 15.1428V20H193.498V15.3217C193.498 14.7682 193.354 14.3357 193.065 14.0241C192.777 13.7093 192.381 13.5518 191.877 13.5518C191.532 13.5518 191.226 13.6264 190.957 13.7756C190.692 13.9247 190.482 14.1435 190.326 14.4318C190.173 14.7169 190.097 15.0616 190.097 15.4659Z" fill="#1AD598"/>
<defs>
<filter id="filter0_d_509_63612" x="6.2" y="2.7" width="23.6" height="23.6" filterUnits="userSpaceOnUse" color-interpolation-filters="sRGB">
<feFlood flood-opacity="0" result="BackgroundImageFix"/>
<feColorMatrix in="SourceAlpha" type="matrix" values="0 0 0 0 0 0 0 0 0 0 0 0 0 0 0 0 0 0 127 0" result="hardAlpha"/>
<feOffset/>
<feGaussianBlur stdDeviation="3.4"/>
<feComposite in2="hardAlpha" operator="out"/>
<feColorMatrix type="matrix" values="0 0 0 0 0.40542 0 0 0 0 1 0 0 0 0 0.806046 0 0 0 1 0"/>
<feBlend mode="normal" in2="BackgroundImageFix" result="effect1_dropShadow_509_63612"/>
<feBlend mode="normal" in="SourceGraphic" in2="effect1_dropShadow_509_63612" result="shape"/>
</filter>
</defs>
</svg>
