<svg width="100" height="100" viewBox="0 0 100 100" fill="none" xmlns="http://www.w3.org/2000/svg">
<g clip-path="url(#clip0_0_3)">
<path d="M41.448 62.0674C41.448 64.1658 41.1514 66.0818 40.5584 67.8152C39.9654 69.5031 38.9162 70.9629 37.4108 72.1945C35.9511 73.3806 33.9211 74.3157 31.3209 75C28.7207 75.6843 25.4134 76.0264 21.3991 76.0264C17.4304 76.0264 14.1459 75.6843 11.5457 75C8.99112 74.3157 6.96115 73.3806 5.45577 72.1945C3.99601 70.9629 2.96962 69.5031 2.37659 67.8152C1.82918 66.0818 1.55547 64.1658 1.55547 62.0674V50.9824C1.55547 50.1157 1.73794 49.4998 2.10288 49.1349C2.51344 48.7243 3.15209 48.5191 4.01882 48.5191H13.9406C14.8074 48.5191 15.4232 48.7243 15.7881 49.1349C16.1987 49.4998 16.404 50.1157 16.404 50.9824V59.3304C16.404 60.2427 16.6777 61.0182 17.2251 61.6569C17.8181 62.2499 19.1638 62.5464 21.2622 62.5464C23.2238 62.5464 24.4554 62.2499 24.9572 61.6569C25.5047 61.0182 25.7784 60.2427 25.7784 59.3304V28.1965C25.7784 27.3297 25.9608 26.7139 26.3258 26.349C26.7363 25.9384 27.375 25.7331 28.2417 25.7331H38.9846C39.8513 25.7331 40.4672 25.9384 40.8321 26.349C41.2427 26.7139 41.448 27.3297 41.448 28.1965V62.0674ZM60.5031 75H50.3075C49.4408 75 48.8022 74.8175 48.3916 74.4526C48.0267 74.042 47.8442 73.4034 47.8442 72.5367V28.1965C47.8442 27.3297 48.0267 26.7139 48.3916 26.349C48.8022 25.9384 49.4408 25.7331 50.3075 25.7331H61.3242C62.054 25.7331 62.6471 25.8928 63.1033 26.2121C63.605 26.5314 64.0612 27.056 64.4718 27.7859L70.6301 38.9394C70.8582 39.3499 71.0407 39.6465 71.1775 39.8289C71.36 40.0114 71.5881 40.1026 71.8618 40.1026H72.4776C72.7513 40.1026 72.9566 40.0114 73.0935 39.8289C73.2759 39.6465 73.4812 39.3499 73.7093 38.9394L79.7992 27.7859C80.2098 27.056 80.6432 26.5314 81.0993 26.2121C81.6011 25.8928 82.217 25.7331 82.9469 25.7331H94.0319C94.8986 25.7331 95.5145 25.9384 95.8794 26.349C96.29 26.7139 96.4952 27.3297 96.4952 28.1965V72.5367C96.4952 73.4034 96.29 74.042 95.8794 74.4526C95.5145 74.8175 94.8986 75 94.0319 75H83.4943C82.6275 75 81.9889 74.8175 81.5783 74.4526C81.2134 74.042 81.0309 73.4034 81.0309 72.5367V48.4506L76.9938 55.9091C76.5832 56.6846 76.0814 57.2548 75.4884 57.6197C74.941 57.9391 74.2339 58.0987 73.3672 58.0987H70.6301C69.7634 58.0987 69.0335 57.9391 68.4405 57.6197C67.8931 57.2548 67.4141 56.6846 67.0035 55.9091L62.9664 48.4506V72.5367C62.9664 73.4034 62.7611 74.042 62.3506 74.4526C61.9856 74.8175 61.3698 75 60.5031 75Z" fill="#936BFF"/>
</g>
<defs>
<clipPath id="clip0_0_3">
<rect width="100" height="100" fill="white"/>
</clipPath>
</defs>
</svg>
