<svg width="241" height="75" viewBox="0 0 241 75" fill="none" xmlns="http://www.w3.org/2000/svg">
<path d="M29.7775 0.475094C45.8068 0.475094 59.1178 9.00533 59.1178 27.2844C59.1178 45.751 45.8068 54 29.7775 54C13.8419 54 0.53095 45.4698 0.53095 27.2844C0.53095 9.19281 13.8419 0.475094 29.7775 0.475094ZM29.7775 41.064C38.7764 41.064 45.1507 36.752 45.1507 27.2844C45.1507 17.5356 38.7764 13.5048 29.7775 13.5048C20.8723 13.5048 14.498 17.3481 14.498 27.2844C14.498 37.127 20.8723 41.064 29.7775 41.064ZM97.5456 1.50622C119.762 1.50622 122.105 20.1603 122.105 27.8469C122.105 34.8773 119.668 54.1875 97.5456 54.1875C87.703 54.1875 81.7037 51.3753 78.1416 46.7821H77.4854V74.0601H63.2371V1.50622H77.4854V9.19281H78.2354C81.7974 4.59961 87.7967 1.50622 97.5456 1.50622ZM93.4211 41.9077C107.013 41.9077 108.513 31.5964 108.513 27.8469C108.513 23.7223 107.013 13.786 93.4211 13.786C81.0475 13.786 78.5166 20.7227 78.5166 27.8469C78.5166 35.8147 81.0475 41.9077 93.4211 41.9077ZM180.619 31.034H138.624C139.656 38.0644 143.874 41.5327 153.06 41.5327C161.59 41.5327 165.809 39.1893 167.121 35.7209H180.901C179.495 47.0633 170.308 54 153.06 54C135.062 54 124.845 45.0011 124.845 27.4719C124.845 10.3177 135.344 0.943788 153.06 0.943788C160.466 0.943788 166.465 2.81857 170.871 5.91195V5.81821C180.994 12.7549 181.932 23.8161 181.182 31.034H180.619ZM153.06 13.4111C145.186 13.4111 140.874 16.317 139.187 21.6601H166.934C165.809 17.723 163.184 13.4111 153.06 13.4111ZM217.424 1.41248C239.64 1.41248 240.202 20.0665 240.202 27.7531V54H226.048V27.7531C226.048 23.6286 226.891 13.6923 213.299 13.6923C200.926 13.6923 199.145 21.5663 199.145 28.6905V54H184.896V1.41248H199.145V9.19281H199.801C203.175 4.50587 207.956 1.41248 217.424 1.41248Z" fill="#FBB536"/>
</svg>
