<svg width="44" height="44" viewBox="0 0 44 44" fill="none" xmlns="http://www.w3.org/2000/svg">
<g clip-path="url(#clip0_95_2865)">
<path d="M12.8333 17.7228C12.8333 16.426 13.3485 15.1824 14.2654 14.2654C15.1824 13.3485 16.426 12.8333 17.7228 12.8333H33.6105C34.2526 12.8333 34.8884 12.9598 35.4816 13.2055C36.0748 13.4512 36.6138 13.8114 37.0679 14.2654C37.5219 14.7194 37.8821 15.2585 38.1278 15.8517C38.3735 16.4449 38.5 17.0807 38.5 17.7228V33.6105C38.5 34.2526 38.3735 34.8884 38.1278 35.4816C37.8821 36.0748 37.5219 36.6138 37.0679 37.0679C36.6138 37.5219 36.0748 37.8821 35.4816 38.1278C34.8884 38.3735 34.2526 38.5 33.6105 38.5H17.7228C17.0807 38.5 16.4449 38.3735 15.8517 38.1278C15.2585 37.8821 14.7194 37.5219 14.2654 37.0679C13.8114 36.6138 13.4512 36.0748 13.2055 35.4816C12.9598 34.8884 12.8333 34.2526 12.8333 33.6105V17.7228Z" stroke="#303030" stroke-width="4" stroke-linecap="round" stroke-linejoin="round"/>
<path d="M7.35533 30.6845C6.79313 30.364 6.3255 29.9007 5.99972 29.3416C5.67394 28.7824 5.50156 28.1471 5.5 27.5V9.16667C5.5 7.15 7.15 5.5 9.16667 5.5H27.5C28.875 5.5 29.623 6.20583 30.25 7.33333" stroke="#303030" stroke-width="4" stroke-linecap="round" stroke-linejoin="round"/>
</g>
<defs>
<clipPath id="clip0_95_2865">
<rect width="44" height="44" fill="white"/>
</clipPath>
</defs>
</svg>
