<svg width="387" height="112" viewBox="0 0 387 112" fill="none" xmlns="http://www.w3.org/2000/svg">
<path d="M30.1647 27.949V0.725428H41.6234V27.2921C41.6234 37.1451 40.8206 51.7422 21.2605 51.7422C1.9924 51.7422 0.970604 37.51 0.970604 33.2039C7.39331 33.2039 11.2615 33.2039 12.9402 33.2039C12.9402 35.2475 13.5241 41.6702 21.2605 41.6702C29.7998 41.6702 30.1647 33.4229 30.1647 27.949ZM80.2532 26.9272C80.2532 21.3803 80.2532 0.652443 80.2532 0.652443H91.8579C91.8579 0.652443 91.8579 21.2343 91.8579 28.2409C91.8579 35.1745 91.8579 51.7422 68.7945 51.7422C45.6582 51.7422 45.7311 36.0503 45.7311 28.1679V0.652443H56.8249V26.9272C56.8249 34.5906 57.1169 41.5972 68.7215 41.5972C80.4722 41.5972 80.2532 32.4741 80.2532 26.9272ZM135.468 37.3641V0.652443H146.562V51.7422H130.578L108.172 15.1035H106.931V51.7422H95.8373V0.652443H110.799V0.725428H111.821L134.155 37.3641H135.468ZM185.509 0.725428L203.756 51.7422H192.224L189.232 43.3489H163.176L160.111 51.7422H148.652L166.898 0.725428H185.509ZM166.752 33.2039H185.582L177.627 10.7974H174.781L166.752 33.2039ZM217.264 51.7422H206.171V0.652443H217.264V51.7422ZM243.962 0.652443C265.566 0.652443 269.142 16.4173 269.142 26.2703C269.142 36.1233 265.274 51.7422 243.962 51.7422C241.262 51.7422 224.402 51.7422 221.994 51.7422V0.652443H243.962ZM243.962 41.6702C255.348 41.6702 257.61 31.7442 257.61 26.2703C257.61 20.5045 255.421 10.7974 243.962 10.7974C239.291 10.7974 233.087 10.7974 233.087 10.7974V41.6702C235.058 41.6702 238.853 41.6702 243.962 41.6702ZM44.8348 60.6524H60.7456V111.742H49.6518V73.7168H48.557L38.85 111.742H22.8662L13.1592 73.7168H12.0644V111.742H0.970604V60.6524H17.3193V60.7254H20.0198L30.1647 101.597H31.1865L41.4045 60.7254H44.8348V60.6524ZM90.9632 59.8496C105.852 59.8496 117.165 69.0458 117.165 85.8324C117.165 102.619 105.852 111.742 90.9632 111.742C76.0742 111.742 64.7615 102.911 64.7615 85.8324C64.7615 69.0458 76.0742 59.8496 90.9632 59.8496ZM90.9632 100.429C99.7945 100.429 106.29 95.6124 106.29 85.8324C106.29 75.8334 99.7945 71.1623 90.9632 71.1623C82.132 71.1623 75.6363 75.6874 75.6363 85.8324C75.6363 95.9774 82.132 100.429 90.9632 100.429ZM158.232 81.2343V60.6524H169.399V111.742H158.232V91.2333H131.592V111.742H120.498V60.6524H131.592V81.2343H158.232ZM208.389 60.7254L226.635 111.742H215.103L212.111 103.349H186.055L182.99 111.742H171.531L189.777 60.7254H208.389ZM189.631 93.2039H208.462L200.506 70.7974H197.66L189.631 93.2039ZM272.7 60.6524H288.611V111.742H277.517V73.7168H276.422L266.715 111.742H250.732L241.025 73.7168H239.93V111.742H228.836V60.6524H245.185V60.7254H247.885L258.03 101.597H259.052L269.27 60.7254H272.7V60.6524ZM292.983 60.6524H334.95V70.7244H304.077V81.2343H334.95V91.2333H304.077V101.597H334.95V111.742H304.077H292.983V60.6524ZM361.067 60.6524C382.67 60.6524 386.247 76.4173 386.247 86.2703C386.247 96.1233 382.378 111.742 361.067 111.742C358.366 111.742 341.507 111.742 339.098 111.742V60.6524H361.067ZM361.067 101.67C372.452 101.67 374.715 91.7442 374.715 86.2703C374.715 80.5045 372.525 70.7974 361.067 70.7974C356.396 70.7974 350.192 70.7974 350.192 70.7974V101.67C352.162 101.67 355.958 101.67 361.067 101.67Z" fill="#1D1B1B"/>
</svg>
